<svg xmlns="http://www.w3.org/2000/svg" viewBox="0 0 3500 3500" shape-rendering="geometricPrecision" text-rendering="geometricPrecision" image-rendering="optimizeQuality" fill-rule="evenodd" clip-rule="evenodd"><path d="M380 250h2740c72 0 130 58 130 130v2740c0 72-58 130-130 130H380c-72 0-130-58-130-130V380c0-72 58-130 130-130zm420 560h1900c21 0 39 7 53 22 15 15 23 32 23 53v1730c0 21-8 38-23 53-14 15-32 22-53 22H800c-21 0-39-7-53-22-15-15-23-32-23-53V885c0-21 8-38 23-53 14-15 32-22 53-22zm95 171v1260l422-312 510 224-127-266 501-544 404 492V981H895zm252 265c44-45 98-67 162-67s118 22 162 67c45 44 67 98 67 161s-22 118-67 162c-44 46-98 68-162 68s-118-22-162-68c-45-44-67-99-67-162s22-117 67-161z" fill="#95313e"/></svg>